<svg width="86" height="23" viewBox="0 0 86 23" fill="none" xmlns="http://www.w3.org/2000/svg">
<path d="M16.707 9.41016C16.707 11.4258 16.3477 13.1172 15.6289 14.4844C14.918 15.8438 13.8711 16.8398 12.4883 17.4727L16.6133 22.0781H11.9609L8.82031 18.2344H8.55078C5.92578 18.2344 3.91016 17.4727 2.50391 15.9492C1.09766 14.4258 0.394531 12.2383 0.394531 9.38672C0.394531 6.53516 1.09766 4.35938 2.50391 2.85938C3.91797 1.35156 5.94141 0.597656 8.57422 0.597656C11.207 0.597656 13.2188 1.35547 14.6094 2.87109C16.0078 4.38672 16.707 6.56641 16.707 9.41016ZM4.20312 9.41016C4.20312 11.3242 4.56641 12.7656 5.29297 13.7344C6.01953 14.7031 7.10547 15.1875 8.55078 15.1875C11.4492 15.1875 12.8984 13.2617 12.8984 9.41016C12.8984 5.55078 11.457 3.62109 8.57422 3.62109C7.12891 3.62109 6.03906 4.10938 5.30469 5.08594C4.57031 6.05469 4.20312 7.49609 4.20312 9.41016Z" fill="white"/>
<path d="M37.1853 18H33.0486L30.7283 9C30.6423 8.67969 30.4939 8.01953 30.283 7.01953C30.0798 6.01172 29.9627 5.33594 29.9314 4.99219C29.8845 5.41406 29.7673 6.09375 29.5798 7.03125C29.3923 7.96094 29.2478 8.625 29.1462 9.02344L26.8377 18H22.7127L18.3416 0.867188H21.9158L24.1072 10.2188C24.49 11.9453 24.7673 13.4414 24.9392 14.707C24.9861 14.2617 25.0916 13.5742 25.2556 12.6445C25.4275 11.707 25.5877 10.9805 25.7361 10.4648L28.2322 0.867188H31.6658L34.1619 10.4648C34.2712 10.8945 34.408 11.5508 34.572 12.4336C34.7361 13.3164 34.8611 14.0742 34.947 14.707C35.0252 14.0977 35.1502 13.3398 35.322 12.4336C35.4939 11.5195 35.6502 10.7812 35.7908 10.2188L37.9705 0.867188H41.5447L37.1853 18Z" fill="white"/>
<path d="M53.8081 18H43.9409V0.867188H53.8081V3.84375H47.5737V7.60547H53.3745V10.582H47.5737V15H53.8081V18Z" fill="white"/>
<path d="M61.2669 8.47266H62.4388C63.5872 8.47266 64.4348 8.28125 64.9817 7.89844C65.5286 7.51562 65.802 6.91406 65.802 6.09375C65.802 5.28125 65.5208 4.70312 64.9583 4.35938C64.4036 4.01562 63.5403 3.84375 62.3684 3.84375H61.2669V8.47266ZM61.2669 11.4258V18H57.6341V0.867188H62.6263C64.9544 0.867188 66.677 1.29297 67.7942 2.14453C68.9114 2.98828 69.47 4.27344 69.47 6C69.47 7.00781 69.1927 7.90625 68.638 8.69531C68.0833 9.47656 67.2981 10.0898 66.2825 10.5352C68.8606 14.3867 70.5403 16.875 71.3216 18H67.2903L63.2005 11.4258H61.2669Z" fill="white"/>
<path d="M71.5616 4.89844H75.4756L77.9483 12.2695C78.1592 12.9102 78.3037 13.668 78.3819 14.543H78.4522C78.5381 13.7383 78.7061 12.9805 78.9561 12.2695L81.3819 4.89844H85.2139L79.6709 19.6758C79.1631 21.043 78.4366 22.0664 77.4912 22.7461C76.5537 23.4258 75.4561 23.7656 74.1983 23.7656C73.5811 23.7656 72.9756 23.6992 72.3819 23.5664V20.7305C72.8116 20.832 73.2803 20.8828 73.7881 20.8828C74.4209 20.8828 74.9717 20.6875 75.4405 20.2969C75.917 19.9141 76.2881 19.332 76.5537 18.5508L76.7647 17.9062L71.5616 4.89844Z" fill="white"/>
</svg>
